<svg width="278" height="120" viewBox="0 0 278 120" fill="none" xmlns="http://www.w3.org/2000/svg">
<rect width="278" height="120" fill="#E5E5E5"/>
<g clip-path="url(#clip0)">
<rect x="-200" y="-774" width="1600" height="2924" fill="white"/>
<rect width="278" height="120" rx="4" fill="#2196F3"/>
<path d="M171.316 73.3385L152.847 54.7337L154.897 44.6373C155.426 44.8438 155.988 44.9517 156.556 44.9558H156.57C159.178 44.9866 161.317 42.8974 161.348 40.2893C161.379 37.6812 159.289 35.542 156.681 35.5111C154.073 35.4803 151.934 37.5695 151.903 40.1776C151.897 40.7357 151.989 41.2905 152.176 41.8163L141.326 43.1405L123.628 25.35C123.41 25.1285 123.114 25.0025 122.804 25C122.498 25.0016 122.204 25.1235 121.987 25.3395L118.679 28.6295C118.223 29.0851 118.223 29.8236 118.679 30.2792L120.459 32.0852C113.562 44.7681 115.802 60.4741 125.97 70.7228C126.064 70.8121 126.172 70.8843 126.29 70.9363C126.216 71.3311 126.178 71.7317 126.176 72.1333V85.6667H112.176C108.956 85.6705 106.346 88.28 106.342 91.5V93.8333C106.342 94.4776 106.865 95 107.509 95H161.176C161.82 95 162.342 94.4776 162.342 93.8333V91.5C162.338 88.28 159.729 85.6705 156.509 85.6667H142.509V79.6688C144.702 80.1288 146.937 80.3633 149.178 80.3688C154.555 80.363 159.846 79.0225 164.578 76.4675L166.367 78.2677C166.584 78.4892 166.881 78.6152 167.191 78.6177C167.497 78.6161 167.79 78.4941 168.008 78.2782L171.316 74.9882C171.772 74.5326 171.772 73.7941 171.316 73.3385ZM154.925 38.6348C155.838 37.726 157.316 37.7301 158.224 38.6437C159.133 39.5574 159.129 41.0348 158.215 41.9435C157.778 42.3785 157.186 42.6226 156.569 42.6225H156.562C155.274 42.6158 154.235 41.5658 154.241 40.2771C154.244 39.6602 154.492 39.0699 154.929 38.6348H154.925ZM152.178 46.301L150.869 52.7445L148.298 50.158L152.178 46.301ZM150.853 44.3282L146.653 48.5037L143.404 45.237L150.853 44.3282ZM156.509 88C158.442 88 160.009 89.567 160.009 91.5V92.6667H108.676V91.5C108.676 89.567 110.243 88 112.176 88H156.509ZM140.176 83.3333V85.6667H128.509V83.3333H140.176ZM128.509 81V72.1333C128.509 69.303 131.126 67 134.342 67C137.559 67 140.176 69.303 140.176 72.1333V81H128.509ZM142.509 77.29V72.1333C142.509 68.0162 138.846 64.6667 134.342 64.6667C131.431 64.622 128.708 66.1041 127.165 68.5738C118.289 59.2249 116.29 45.2875 122.181 33.8207L162.872 74.7455C156.589 77.9419 149.386 78.8418 142.509 77.29ZM167.204 75.7943L165.56 74.1412L122.792 31.1157L121.141 29.4613L122.792 27.8163L140.15 45.272C140.158 45.272 140.163 45.2872 140.171 45.293L168.859 74.1493L167.204 75.7943Z" fill="white"/>
<path d="M134.353 69.3333H134.342C132.409 69.3304 130.84 70.895 130.837 72.8281C130.834 74.7611 132.399 76.3304 134.332 76.3333H134.342C136.275 76.3362 137.844 74.7716 137.847 72.8386C137.85 70.9055 136.286 69.3362 134.353 69.3333ZM135.169 73.6605C134.95 73.8789 134.652 74.0012 134.342 74C133.698 73.9966 133.178 73.4716 133.182 72.8273C133.183 72.5189 133.307 72.2237 133.526 72.0062C133.743 71.7902 134.036 71.6683 134.342 71.6667C134.986 71.67 135.506 72.195 135.503 72.8393C135.501 73.1477 135.377 73.4429 135.159 73.6605H135.169Z" fill="white"/>
<path d="M230.333 125C230.087 125 229.856 125.067 229.658 125.184C229.584 124.519 229.018 124 228.333 124C228.008 124 227.709 124.118 227.476 124.314C227.243 123.926 226.818 123.667 226.333 123.667C226.091 123.667 225.863 123.732 225.667 123.846V120.333C225.667 119.598 225.069 119 224.333 119C223.598 119 223 119.598 223 120.333V129.255C223 129.423 222.889 129.509 222.842 129.538C222.794 129.567 222.666 129.628 222.517 129.553L220.377 128.482C220.182 128.385 219.963 128.333 219.745 128.333C218.967 128.333 218.333 128.967 218.333 129.745V130C218.333 130.092 218.372 130.181 218.439 130.244L222.286 133.835C223.092 134.586 224.142 135 225.243 135H227.333C229.723 135 231.667 133.056 231.667 130.667V126.333C231.667 125.598 231.069 125 230.333 125ZM231 130.667C231 132.688 229.355 134.333 227.333 134.333H225.243C224.311 134.333 223.423 133.983 222.741 133.347L219 129.855V129.745C219 129.334 219.334 129 219.745 129C219.86 129 219.976 129.027 220.079 129.079L222.219 130.149C222.532 130.306 222.895 130.288 223.192 130.105C223.489 129.922 223.667 129.604 223.667 129.255V120.333C223.667 119.966 223.966 119.667 224.333 119.667C224.701 119.667 225 119.966 225 120.333V125.333C225 125.518 225.149 125.667 225.333 125.667C225.517 125.667 225.667 125.518 225.667 125.333V125C225.667 124.633 225.966 124.333 226.333 124.333C226.701 124.333 227 124.633 227 125V125.333C227 125.334 227 125.335 227 125.335V125.336C227.001 125.519 227.15 125.667 227.333 125.667C227.517 125.667 227.667 125.518 227.667 125.333V125.328C227.669 124.963 227.968 124.667 228.333 124.667C228.701 124.667 229 124.966 229 125.333V126.333C229 126.518 229.149 126.667 229.333 126.667C229.517 126.667 229.667 126.518 229.667 126.333C229.667 125.966 229.966 125.667 230.333 125.667C230.701 125.667 231 125.966 231 126.333V130.667Z" fill="black"/>
</g>
<defs>
<clipPath id="clip0">
<rect x="-200" y="-774" width="1600" height="2924" fill="white"/>
</clipPath>
</defs>
</svg>
