<svg width="278" height="120" viewBox="0 0 278 120" fill="none" xmlns="http://www.w3.org/2000/svg">
<rect width="278" height="120" fill="#E5E5E5"/>
<g clip-path="url(#clip0)">
<rect x="-507" y="-774" width="1600" height="2924" fill="white"/>
<rect width="278" height="120" rx="4" fill="#F5F4FA"/>
<g clip-path="url(#clip1)">
<path d="M172.461 58.4715C172.458 39.9819 157.466 24.9963 138.975 25C120.486 25.0037 105.5 39.9963 105.504 58.4859C105.507 73.0502 114.925 85.9413 128.8 90.3713C128.932 90.413 129.07 90.4343 129.208 90.4338C129.472 90.4333 129.73 90.3628 129.957 90.2287C130.253 90.0541 130.473 89.7764 130.577 89.449L139.032 62.6521C141.343 62.6404 143.207 60.7568 143.194 58.4459C143.183 56.1345 141.3 54.2706 138.988 54.2824C138.367 54.285 137.753 54.4282 137.194 54.7011L126.025 43.5302C125.471 42.9951 124.588 43.0106 124.053 43.5644C123.53 44.1054 123.53 44.962 124.053 45.503L135.216 56.6792C134.36 58.4277 134.849 60.5383 136.39 61.7303L128.334 87.2647C112.414 81.4002 104.262 63.7405 110.126 47.8203C115.991 31.9 133.65 23.7482 149.571 29.6127C165.491 35.4771 173.643 53.1374 167.778 69.0571C164.913 76.8351 159.026 83.1252 151.455 86.4989L150.584 82.3989C150.425 81.6454 149.684 81.1636 148.931 81.3233C148.693 81.3741 148.473 81.4857 148.291 81.6475L139.898 89.1409C139.322 89.653 139.271 90.5347 139.783 91.1105C139.95 91.2974 140.164 91.4362 140.403 91.5126L151.119 94.9327C151.852 95.1682 152.638 94.765 152.873 94.0312C152.948 93.7994 152.96 93.5527 152.91 93.3145L152.055 89.2915C164.445 84.0678 172.49 71.918 172.461 58.4715ZM138.983 57.0766C139.753 57.0766 140.378 57.7014 140.378 58.4715C140.378 59.2422 139.753 59.8665 138.983 59.8665C138.212 59.8665 137.588 59.2422 137.588 58.4715C137.588 57.7014 138.212 57.0766 138.983 57.0766ZM143.577 89.5916L148.355 85.3298L149.674 91.543L143.577 89.5916Z" fill="#212121"/>
<path d="M137.588 31.9673V34.7572C137.588 35.5279 138.212 36.1522 138.983 36.1522C139.753 36.1522 140.378 35.5279 140.378 34.7572V31.9673C140.378 31.1972 139.753 30.5724 138.983 30.5724C138.212 30.5724 137.588 31.1972 137.588 31.9673Z" fill="#2196F3"/>
<path d="M112.479 57.0765C111.708 57.0765 111.084 57.7014 111.084 58.4715C111.084 59.2421 111.708 59.8665 112.479 59.8665H115.269C116.039 59.8665 116.664 59.2421 116.664 58.4715C116.664 57.7014 116.039 57.0765 115.269 57.0765H112.479Z" fill="#2196F3"/>
<path d="M165.487 59.8665C166.257 59.8665 166.882 59.2421 166.882 58.4715C166.882 57.7014 166.257 57.0765 165.487 57.0765H162.697C161.927 57.0765 161.302 57.7014 161.302 58.4715C161.302 59.2421 161.927 59.8665 162.697 59.8665H165.487Z" fill="#2196F3"/>
</g>
</g>
<defs>
<clipPath id="clip0">
<rect x="-507" y="-774" width="1600" height="2924" fill="white"/>
</clipPath>
<clipPath id="clip1">
<rect x="104" y="25" width="70" height="70" fill="white"/>
</clipPath>
</defs>
</svg>
