<svg width="278" height="120" viewBox="0 0 278 120" fill="none" xmlns="http://www.w3.org/2000/svg">
<rect width="278" height="120" fill="#E5E5E5"/>
<g clip-path="url(#clip0)">
<rect x="-815" y="-774" width="1600" height="2924" fill="white"/>
<rect width="278" height="120" rx="4" fill="#F5F4FA"/>
<g clip-path="url(#clip1)">
<path d="M136.65 57.7351H138.982V68.2296H136.65V57.7351Z" fill="#2196F3"/>
<path d="M145.978 62.3993H148.31V68.2296H145.978V62.3993Z" fill="#2196F3"/>
<path d="M127.321 65.8975H129.653V68.2296H127.321V65.8975Z" fill="#2196F3"/>
<path d="M120.325 64.7314H122.657V68.2295H120.325V64.7314Z" fill="#2196F3"/>
<path d="M107.498 86.8865H163.469C165.401 86.8865 166.967 85.3202 166.967 83.3883V78.7241C166.967 76.7922 165.401 75.2259 163.469 75.2259H162.303V46.1468L168.926 39.8724C170.463 40.6303 172.324 40.1702 173.33 38.7815C174.337 37.3934 174.196 35.4821 172.997 34.2568C171.798 33.0315 169.89 32.8488 168.48 33.8241C167.07 34.8 166.569 36.6498 167.293 38.2036L162.303 42.9345V40.2442C162.303 38.3124 160.736 36.7461 158.805 36.7461H112.162C110.231 36.7461 108.664 38.3124 108.664 40.2442V75.2259H107.498C105.566 75.2259 104 76.7922 104 78.7241V83.3883C104 85.3202 105.566 86.8865 107.498 86.8865ZM170.465 35.58C171.109 35.58 171.631 36.1021 171.631 36.7461C171.631 37.39 171.109 37.9121 170.465 37.9121C169.821 37.9121 169.299 37.39 169.299 36.7461C169.299 36.1021 169.821 35.58 170.465 35.58ZM110.996 40.2442C110.996 39.6003 111.518 39.0782 112.162 39.0782H158.805C159.449 39.0782 159.971 39.6003 159.971 40.2442V45.1413L157.639 47.3573V42.5763C157.639 41.9324 157.116 41.4103 156.473 41.4103H114.495C113.851 41.4103 113.328 41.9324 113.328 42.5763V71.7277C113.328 72.3717 113.851 72.8938 114.495 72.8938H156.473C157.116 72.8938 157.639 72.3717 157.639 71.7277V50.5651L159.971 48.3554V75.2259H110.996V40.2442ZM121.491 55.403C119.913 55.3984 118.528 56.4495 118.108 57.9702C117.689 59.491 118.338 61.104 119.695 61.9091C121.051 62.7142 122.779 62.512 123.913 61.4149L127.966 63.4486C128.437 63.6844 129.008 63.5739 129.358 63.1805L137.974 53.4871L146.444 59.8337C146.899 60.1742 147.533 60.1378 147.945 59.7478L155.306 52.7748V70.5617H115.661V43.7424H155.306V49.5619L147.056 57.3747L138.515 50.9716C138.03 50.6084 137.348 50.6767 136.944 51.1293L128.21 60.9571L124.945 59.3242C124.969 59.1841 124.983 59.0429 124.989 58.9011C124.989 56.9693 123.423 55.403 121.491 55.403ZM122.657 58.9011C122.657 59.5451 122.135 60.0672 121.491 60.0672C120.847 60.0672 120.325 59.5451 120.325 58.9011C120.325 58.2572 120.847 57.7351 121.491 57.7351C122.135 57.7351 122.657 58.2572 122.657 58.9011ZM129.653 77.558H141.314V78.7241C141.314 79.368 140.792 79.8901 140.148 79.8901H130.819C130.175 79.8901 129.653 79.368 129.653 78.7241V77.558ZM106.332 78.7241C106.332 78.0801 106.854 77.558 107.498 77.558H127.321V78.7241C127.321 80.6559 128.887 82.2223 130.819 82.2223H140.148C142.08 82.2223 143.646 80.6559 143.646 78.7241V77.558H163.469C164.113 77.558 164.635 78.0801 164.635 78.7241V83.3883C164.635 84.0323 164.113 84.5544 163.469 84.5544H107.498C106.854 84.5544 106.332 84.0323 106.332 83.3883V78.7241Z" fill="#212121"/>
</g>
</g>
<defs>
<clipPath id="clip0">
<rect x="-815" y="-774" width="1600" height="2924" fill="white"/>
</clipPath>
<clipPath id="clip1">
<rect x="104" y="25" width="70" height="70" fill="white"/>
</clipPath>
</defs>
</svg>
