<svg width="278" height="120" viewBox="0 0 278 120" fill="none" xmlns="http://www.w3.org/2000/svg">
<rect width="278" height="120" fill="#E5E5E5"/>
<g clip-path="url(#clip0)">
<rect x="-1123" y="-774" width="1600" height="2924" fill="white"/>
<rect width="278" height="120" rx="4" fill="#F5F4FA"/>
<path d="M173.943 34.8964C173.806 34.4752 173.442 34.1673 173.002 34.103L168.823 33.4951L166.953 29.7081C166.561 28.9101 165.253 28.9101 164.861 29.7081L162.991 33.4951L158.812 34.1031C158.372 34.1673 158.008 34.4742 157.869 34.8965C157.732 35.3189 157.846 35.7832 158.164 36.0924L161.189 39.0407L160.475 43.2034C160.401 43.6409 160.58 44.0831 160.939 44.3445C161.301 44.6082 161.775 44.6408 162.168 44.4331L165.906 42.4672L169.644 44.4331C169.815 44.5229 170.003 44.5672 170.188 44.5672C170.43 44.5672 170.671 44.4926 170.874 44.3444C171.233 44.0831 171.413 43.6408 171.337 43.2033L170.623 39.0405L173.649 36.0923C173.966 35.7819 174.08 35.3187 173.943 34.8964ZM168.556 37.7991C168.282 38.0663 168.156 38.4536 168.221 38.8316L168.639 41.2688L166.45 40.1185C166.28 40.0286 166.093 39.9843 165.906 39.9843C165.72 39.9843 165.534 40.0286 165.363 40.1185L163.174 41.2688L163.591 38.8316C163.657 38.4536 163.531 38.0675 163.257 37.7991L161.484 36.0725L163.932 35.7166C164.313 35.6618 164.64 35.4226 164.811 35.0784L165.905 32.8617L166.999 35.0784C167.17 35.4225 167.498 35.6618 167.878 35.7166L170.326 36.0725L168.556 37.7991Z" fill="#2196F3"/>
<path d="M161.167 69.8923H158.833V72.2257H161.167V69.8923Z" fill="#2196F3"/>
<path d="M161.167 74.5591H158.833V76.8925H161.167V74.5591Z" fill="#2196F3"/>
<path d="M163.5 72.2257H161.167V74.5591H163.5V72.2257Z" fill="#2196F3"/>
<path d="M158.834 72.2257H156.5V74.5591H158.834V72.2257Z" fill="#2196F3"/>
<path d="M153 82.7259H150.667V85.0593H153V82.7259Z" fill="#2196F3"/>
<path d="M153 87.3926H150.667V89.726H153V87.3926Z" fill="#2196F3"/>
<path d="M155.333 85.0593H153V87.3927H155.333V85.0593Z" fill="#2196F3"/>
<path d="M150.667 85.0593H148.333V87.3927H150.667V85.0593Z" fill="#2196F3"/>
<path d="M139 78.0592H136.667V80.3926H139V78.0592Z" fill="#2196F3"/>
<path d="M139 82.7259H136.667V85.0593H139V82.7259Z" fill="#2196F3"/>
<path d="M141.333 80.3925H139V82.7259H141.333V80.3925Z" fill="#2196F3"/>
<path d="M136.666 80.3925H134.333V82.7259H136.666V80.3925Z" fill="#2196F3"/>
<path d="M116.833 38.3918H114.5V40.7252H116.833V38.3918Z" fill="#2196F3"/>
<path d="M116.833 43.0587H114.5V45.3921H116.833V43.0587Z" fill="#2196F3"/>
<path d="M119.166 40.7253H116.833V43.0587H119.166V40.7253Z" fill="#2196F3"/>
<path d="M114.499 40.7253H112.166V43.0587H114.499V40.7253Z" fill="#2196F3"/>
<path d="M158.064 55.9738C157.435 55.1256 156.512 54.5797 155.464 54.4326C154.412 54.2833 153.373 54.5597 152.533 55.2026L149.795 57.3014L149.794 57.3026L145.643 60.4025L142.672 59.2195C147.969 56.843 151.671 51.545 151.671 45.3942C151.671 37.0314 144.84 30.2274 136.444 30.2274C128.047 30.2274 121.216 37.0314 121.216 45.3942C121.216 48.4253 122.123 51.244 123.666 53.6158L117.62 53.5633C117.617 53.5633 117.613 53.5633 117.61 53.5633C117.591 53.5633 117.576 53.5726 117.559 53.5738C117.443 53.5785 117.33 53.6019 117.219 53.6415C117.191 53.652 117.162 53.6579 117.135 53.6706C117.121 53.6765 117.107 53.6776 117.093 53.6846L110.021 57.1764C110.02 57.1764 110.018 57.1764 110.018 57.1775L105.877 59.1693C105.831 59.1891 105.784 59.2159 105.739 59.2463C104.088 60.3452 103.526 62.5036 104.43 64.2676C104.912 65.2056 105.732 65.8964 106.74 66.2125C107.129 66.3337 107.525 66.3933 107.919 66.3933C108.553 66.3933 109.181 66.2382 109.756 65.9314L112.792 64.3167L117.744 61.7593L120.712 61.7418L108.808 73.5884C108.807 73.5896 108.806 73.5896 108.805 73.5907L105.876 76.5074C105.185 77.1958 104.804 78.1092 104.804 79.0835C104.804 80.0565 105.185 80.9723 105.876 81.6619C106.587 82.3689 107.521 82.7236 108.456 82.7236C109.392 82.7236 110.325 82.3689 111.038 81.6619L113.913 78.7988L117.721 75.9556L119.691 77.9179L115.838 81.7552C115.836 81.7564 115.835 81.7564 115.834 81.7575L112.906 84.6741C112.214 85.3625 111.833 86.276 111.833 87.2502C111.833 88.2233 112.214 89.139 112.906 89.8287C113.616 90.5356 114.552 90.8903 115.486 90.8903C116.421 90.8903 117.357 90.5356 118.068 89.8287L120.998 86.912L125.684 82.2453C125.685 82.2441 125.685 82.243 125.687 82.2417L127.895 80.0542L127.887 80.046C127.901 80.0321 127.921 80.0273 127.935 80.0122L139.235 67.6349L146.828 68.7153C146.883 68.7235 146.938 68.7269 146.993 68.7269C147.134 68.7269 147.27 68.6931 147.402 68.6429C147.441 68.629 147.474 68.6103 147.511 68.5917C147.553 68.5706 147.597 68.559 147.637 68.5322L154.666 63.8655C154.692 63.848 154.706 63.82 154.73 63.8014C154.758 63.7792 154.793 63.7699 154.819 63.7453L157.6 61.1401C159.047 59.7841 159.247 57.5628 158.064 55.9738ZM108.66 63.8722C108.281 64.0752 107.851 64.116 107.439 63.9854C107.03 63.8583 106.699 63.5793 106.505 63.2025C106.153 62.5165 106.357 61.6811 106.974 61.2297L109.848 59.8471L110.54 61.869L110.83 62.7183L108.66 63.8722ZM116.31 59.8741L112.923 61.6241L112.365 59.9907L111.963 58.817L116.397 56.6282L116.31 59.8741ZM149.34 45.3919C149.34 47.4009 148.861 49.2957 148.03 50.9908L138.883 46.8362C138.788 45.5821 138.137 44.4842 137.159 43.8005L140.361 33.1685C145.563 34.823 149.34 39.6752 149.34 45.3919ZM123.552 45.3919C123.552 38.3159 129.336 32.5583 136.446 32.5583C136.999 32.5583 137.54 32.605 138.076 32.6726L134.943 43.0714C134.901 43.0701 134.862 43.0585 134.819 43.0585C132.56 43.0585 130.722 44.8902 130.722 47.1419C130.722 49.3936 132.56 51.2254 134.819 51.2254C136.337 51.2254 137.65 50.3866 138.358 49.1591L146.807 52.9976C144.456 56.1616 140.694 58.2255 136.446 58.2255C129.336 58.2255 123.552 52.4679 123.552 45.3919ZM136.581 47.1419C136.581 48.1068 135.79 48.892 134.819 48.892C133.847 48.892 133.056 48.1068 133.056 47.1419C133.056 46.1771 133.847 45.3919 134.819 45.3919C135.79 45.3919 136.581 46.1771 136.581 47.1419ZM109.392 80.0075C108.875 80.5196 108.038 80.5185 107.523 80.0087C107.274 79.7601 107.138 79.4324 107.138 79.0835C107.138 78.7358 107.274 78.408 107.523 78.1619L109.627 76.0652L111.489 77.9192L109.392 80.0075ZM116.422 88.1743C115.905 88.6865 115.068 88.6877 114.552 88.1756C114.303 87.927 114.167 87.5993 114.167 87.2504C114.167 86.9027 114.303 86.5748 114.552 86.3287L116.658 84.231L117.539 85.1073L118.521 86.085L116.422 88.1743ZM124.038 80.5862C124.037 80.5873 124.036 80.5873 124.035 80.5885L120.174 84.4386L119.293 83.5623L118.311 82.5846L122.168 78.7451C122.168 78.7451 122.168 78.7451 122.168 78.744C122.169 78.7428 122.17 78.7428 122.172 78.7417C122.259 78.6542 122.314 78.5492 122.368 78.4454C122.383 78.4151 122.412 78.3894 122.425 78.3579C122.461 78.2681 122.467 78.1713 122.481 78.0767C122.488 78.0229 122.511 77.9729 122.511 77.9179C122.511 77.8397 122.483 77.764 122.467 77.6869C122.453 77.6169 122.453 77.5457 122.426 77.4781C122.382 77.3685 122.306 77.2717 122.227 77.1771C122.204 77.1514 122.196 77.1187 122.172 77.0942C122.172 77.0942 122.172 77.0942 122.17 77.0942C122.169 77.0931 122.169 77.0906 122.168 77.0896L118.653 73.5895C118.616 73.5522 118.568 73.537 118.526 73.5056C118.464 73.4577 118.404 73.4134 118.336 73.3795C118.269 73.3468 118.201 73.327 118.131 73.3083C118.057 73.2872 117.984 73.2709 117.906 73.2651C117.835 73.2604 117.769 73.2674 117.697 73.2756C117.619 73.2849 117.546 73.2954 117.47 73.3199C117.396 73.3433 117.331 73.3794 117.264 73.4179C117.22 73.4424 117.171 73.4506 117.131 73.4809L113.251 76.3767L111.281 74.4143L116.529 69.1946L126.067 78.576L124.038 80.5862ZM138.954 65.2372C138.921 65.2326 138.889 65.2454 138.855 65.2431C138.77 65.2385 138.689 65.2443 138.603 65.2583C138.537 65.2699 138.474 65.2828 138.411 65.3049C138.336 65.3306 138.269 65.3656 138.2 65.4076C138.134 65.4472 138.075 65.4892 138.018 65.5417C137.99 65.5662 137.956 65.5779 137.93 65.6058L127.653 76.8621L118.185 67.5507L124.382 61.3859C124.839 60.9309 124.841 60.1924 124.386 59.735C124.156 59.5052 123.854 59.392 123.552 59.3932V59.3921L118.698 59.4213L118.759 55.9049L125.549 55.9633C128.317 58.7937 132.176 60.5589 136.446 60.5589C137.403 60.5589 138.336 60.4598 139.245 60.2905C139.332 60.3605 139.419 60.4318 139.528 60.4761L144.8 62.5761L145.133 64.2351L145.523 66.1717L138.954 65.2372ZM147.794 65.6269L147.11 62.219L150.274 59.8564L151.102 60.9554L152.344 62.6051L147.794 65.6269ZM156.005 59.4341L154.173 61.1515L152.136 58.4471L153.954 57.053C154.294 56.7917 154.722 56.6855 155.142 56.7403C155.564 56.7998 155.938 57.0203 156.192 57.3621C156.666 58.0003 156.585 58.8905 156.005 59.4341Z" fill="#212121"/>
<path d="M133.755 65.5651L129.067 60.8984C128.613 60.4446 127.876 60.4446 127.421 60.8984L122.734 65.5651C122.515 65.7856 122.391 66.0819 122.391 66.3922C122.391 66.7026 122.514 67.0001 122.734 67.2194L127.421 71.8861C127.648 72.1124 127.947 72.2256 128.244 72.2256C128.542 72.2256 128.841 72.1124 129.067 71.8861L133.755 67.2194C133.974 67.0001 134.099 66.7026 134.099 66.3922C134.099 66.0819 133.975 65.7844 133.755 65.5651ZM128.244 69.4128L125.211 66.3922L128.244 63.3717L131.279 66.3922L128.244 69.4128Z" fill="#212121"/>
<path d="M141.547 36.0923L140.983 38.3581C141.139 38.3966 144.785 39.3463 144.785 43.0587H147.118C147.118 38.6461 143.474 36.5718 141.547 36.0923Z" fill="#212121"/>
<path d="M147.118 45.3919H144.784V47.7253H147.118V45.3919Z" fill="#212121"/>
</g>
<defs>
<clipPath id="clip0">
<rect x="-1123" y="-774" width="1600" height="2924" fill="white"/>
</clipPath>
</defs>
</svg>
